<svg width="26" height="24" viewBox="0 0 26 24" fill="none" xmlns="http://www.w3.org/2000/svg">
<path d="M12.896 14.9748C12.7609 14.9748 12.6298 14.9498 12.5029 14.8998C12.3759 14.8498 12.2705 14.7831 12.1867 14.6998L7.52618 10.0998C7.34043 9.91647 7.24756 9.68314 7.24756 9.39981C7.24756 9.11647 7.34043 8.88314 7.52618 8.69981C7.71193 8.51647 7.94833 8.4248 8.2354 8.4248C8.52246 8.4248 8.75887 8.51647 8.94461 8.69981L12.896 12.5998L16.8473 8.69981C17.0331 8.51647 17.2695 8.4248 17.5565 8.4248C17.8436 8.4248 18.08 8.51647 18.2657 8.69981C18.4515 8.88314 18.5444 9.11647 18.5444 9.39981C18.5444 9.68314 18.4515 9.91647 18.2657 10.0998L13.6052 14.6998C13.5039 14.7998 13.3941 14.8708 13.2759 14.9128C13.1577 14.9548 13.0311 14.9755 12.896 14.9748Z" fill="white"/>
</svg>
