<svg width="137" height="139" viewBox="0 0 137 139" fill="none" xmlns="http://www.w3.org/2000/svg">
  <g clip-path="url(#clip0_102_191)">
    <g clip-path="url(#clip1_102_191)">
      <g clip-path="url(#clip2_102_191)">
        <path d="M114.44 71.0883C114.243 70.8917 113.981 70.7846 113.705 70.7846H110.331H89.519C90.0895 69.9143 90.4264 68.8839 90.4264 67.7708C90.4264 64.9672 88.3358 62.6407 85.627 62.2665C82.6655 47.2422 71.461 37.9717 56.1049 37.9717C40.7448 37.9717 29.5348 47.2585 26.5774 62.3004C23.9773 62.7682 21.998 65.0404 21.998 67.7695C21.998 70.4972 23.9773 72.7708 26.5774 73.2372C29.5334 88.2832 40.7462 97.5659 56.1049 97.5659C58.705 97.5659 61.172 97.2799 63.5153 96.7633C68.6231 99.4694 74.6126 101.028 81.0123 101.028C99.5662 101.028 114.698 87.9266 114.743 71.8218C114.743 71.5493 114.634 71.2836 114.44 71.0883ZM109.261 72.8576C108.911 78.6506 105.791 84.056 101.041 88.1286L85.4477 74.0249L84.1531 72.8576H87.0425H109.261ZM99.3991 89.4383C94.6689 92.9307 88.6428 95.1812 82.2213 95.4415V82.8318V74.2445V73.9028L82.2879 73.9639L84.8826 76.312L99.3991 89.4383ZM56.1036 94.4613C41.7419 94.4613 31.7681 85.8713 29.4248 71.4883C29.2998 70.7318 28.645 70.1841 27.8883 70.1841C27.8462 70.1841 27.8041 70.1868 27.7579 70.1895C27.6886 70.1963 27.6166 70.2057 27.5609 70.2179C26.2079 70.2179 25.1089 69.1198 25.1089 67.7708C25.1089 66.4232 26.2052 65.3264 27.5392 65.3264C27.5419 65.3264 27.5446 65.3264 27.5474 65.3264L27.7443 65.3495C28.5648 65.4376 29.2916 64.8587 29.4234 64.052C31.7667 49.6676 41.7392 41.0804 56.1022 41.0804C70.4788 41.0804 80.4526 49.6758 82.7851 64.0724C82.9209 64.9075 83.7931 65.4715 84.6312 65.3481C84.706 65.3386 84.7793 65.3224 84.8568 65.3224C86.2098 65.3224 87.3115 66.4219 87.3115 67.7708C87.3115 69.1198 86.2098 70.2179 84.8568 70.2179C84.7739 70.2179 84.6978 70.2017 84.5334 70.18C83.9656 70.1136 83.4222 70.3589 83.0908 70.7846H52.0336H48.3223C48.0493 70.7846 47.7844 70.8931 47.5874 71.0883C47.3931 71.2849 47.2844 71.5493 47.2844 71.8245C47.3089 80.8375 52.0635 88.9122 59.497 94.2715C58.3912 94.3854 57.2664 94.4613 56.1036 94.4613ZM80.1443 73.9028V80.0986V86.1072V95.4496C77.0931 95.3656 74.1344 94.8029 71.3509 93.8742C70.0264 93.4323 68.7508 92.8995 67.5228 92.2935C65.8858 91.4854 64.3277 90.5595 62.9013 89.4979L80.1443 73.9028ZM61.2671 88.1801C56.5491 84.0994 53.4505 78.6764 53.1054 72.8562H78.2098L61.2671 88.1801ZM81.0123 98.961C75.8121 98.961 70.9013 97.8696 66.5691 95.9472C65.155 95.3195 63.7992 94.6104 62.5209 93.8132C54.8823 89.0682 49.7908 81.4692 49.3873 72.8576H51.0324C51.4807 81.1479 57.0029 88.7184 64.8738 93.2303C66.11 93.9393 67.4073 94.567 68.7508 95.1188C72.5314 96.663 76.6856 97.5415 80.9811 97.5415C96.7229 97.5415 110.608 86.1208 111.335 72.8576H112.643C111.962 87.3437 98.0189 98.961 81.0123 98.961Z" fill="white" />
        <path d="M69.9054 51.2661C70.3116 51.2661 70.7178 51.1007 71.0071 50.8105C71.2965 50.5204 71.4636 50.1164 71.4636 49.711C71.4636 49.3084 71.2965 48.9044 71.0071 48.6129C70.4257 48.034 69.3865 48.034 68.8078 48.6129C68.5157 48.9044 68.3486 49.3084 68.3486 49.711C68.3486 50.1272 68.5157 50.5204 68.8078 50.82C69.0971 51.1007 69.502 51.2661 69.9054 51.2661Z" fill="white" />
        <path d="M73.2272 54.5822C73.6334 54.5822 74.0369 54.4168 74.3289 54.1267C74.6183 53.8366 74.7854 53.4325 74.7854 53.0285C74.7854 52.6245 74.6183 52.2192 74.3289 51.9304C73.7475 51.3474 72.711 51.3474 72.1296 51.9304C71.8375 52.2192 71.6704 52.6245 71.6704 53.0285C71.6704 53.4434 71.8375 53.8366 72.1296 54.1362C72.4176 54.4168 72.8237 54.5822 73.2272 54.5822Z" fill="white" />
        <path d="M68.2455 56.24C68.6517 56.24 69.0578 56.0732 69.3472 55.7831C69.6366 55.4916 69.8023 55.0984 69.8023 54.6849C69.8023 54.2796 69.6352 53.8756 69.3472 53.5854C68.7658 53.0052 67.7293 53.016 67.1479 53.5854C66.8558 53.8756 66.6914 54.2796 66.6914 54.6849C66.6914 55.0984 66.8558 55.4916 67.1479 55.7912C67.4358 56.0732 67.842 56.24 68.2455 56.24Z" fill="white" />
        <path d="M70.0117 57.9988C70.0117 58.415 70.1761 58.8082 70.4682 59.0983C70.7575 59.3898 71.1637 59.5538 71.5672 59.5538C71.9733 59.5538 72.3768 59.3898 72.6689 59.0983C72.9609 58.8082 73.1253 58.4041 73.1253 57.9988C73.1253 57.5961 72.9609 57.1921 72.6689 56.902C72.0983 56.3217 71.0374 56.3217 70.4695 56.902C70.1761 57.1921 70.0117 57.5961 70.0117 57.9988Z" fill="white" />
        <path d="M76.5485 58.7251C76.952 58.7251 77.3581 58.5584 77.6475 58.2696C77.9396 57.9795 78.1066 57.5863 78.1066 57.1701C78.1066 56.7661 77.9396 56.3607 77.6475 56.072C77.0579 55.4903 76.0323 55.4903 75.4481 56.072C75.1588 56.3607 74.9917 56.7661 74.9917 57.1701C74.9917 57.5863 75.1588 57.9795 75.4481 58.2791C75.7402 58.5584 76.1437 58.7251 76.5485 58.7251Z" fill="white" />
        <path d="M44.6812 45.5558C33.5024 50.3497 32.1236 62.5364 32.0706 63.0529C31.9837 63.9071 32.6045 64.669 33.4603 64.7571C33.5133 64.7625 33.5663 64.7666 33.6193 64.7666C34.4072 64.7666 35.0864 64.1728 35.1666 63.3715C35.1801 63.2631 36.3946 52.4944 45.9093 48.411C46.6999 48.072 47.064 47.1583 46.7271 46.3692C46.3874 45.5829 45.4746 45.2155 44.6812 45.5558Z" fill="white" />
        <path d="M49.5744 46.731C49.9778 46.731 50.3732 46.5642 50.6761 46.2754C50.9654 45.984 51.1298 45.5813 51.1298 45.1759C51.1298 44.7719 50.9654 44.3679 50.6761 44.0683C50.0838 43.4989 49.0446 43.4989 48.474 44.0791C48.1847 44.3693 48.0176 44.7733 48.0176 45.1773C48.0176 45.5827 48.1847 45.9853 48.474 46.2768C48.762 46.5642 49.1573 46.731 49.5744 46.731Z" fill="white" />
      </g>
    </g>
    <path d="M1.26075 45.4609C1.42937 44.9993 1.66416 44.5162 1.9646 44.0119C2.26455 43.51 2.61374 43.0458 3.01218 42.6189C3.41111 42.1925 3.84387 41.8742 4.31096 41.6653L5.11629 43.1118C4.68353 43.372 4.31742 43.6281 4.01748 43.8803C3.71355 44.1345 3.4519 44.4165 3.23304 44.7267C3.01118 45.035 2.80674 45.4451 2.61971 45.9559C2.33668 46.7303 2.24764 47.4352 2.35259 48.0702C2.45705 48.7081 2.69831 49.2839 3.07685 49.7972C3.45389 50.314 3.93241 50.7658 4.51191 51.152C5.09241 51.5357 5.72265 51.8515 6.40213 52.0992C7.03237 52.3285 7.68997 52.4874 8.37492 52.5758C9.05689 52.6626 9.71448 52.6443 10.3472 52.5202C10.9809 52.3931 11.5435 52.1334 12.0355 51.7403C12.5309 51.3486 12.9154 50.7782 13.1895 50.0286C13.4104 49.4244 13.47 48.8481 13.3686 48.2985C13.2641 47.748 13.0258 47.2645 12.6543 46.8485C12.2807 46.428 11.7912 46.1073 11.1859 45.8869L10.0224 45.4629L8.89373 48.5477L7.68698 47.8656L9.41553 43.1411L13.0537 44.4879C13.5655 44.6746 14.0883 44.8459 14.6226 45.0017C15.1603 45.1556 15.6915 45.3085 16.2163 45.4614L15.8577 46.4414L14.2908 46.5129C14.6569 47.2535 14.8504 47.9679 14.8728 48.657C14.8991 49.344 14.7688 50.0812 14.4808 50.8675C14.1376 51.8063 13.6625 52.5614 13.0557 53.1337C12.4493 53.7056 11.7524 54.1152 10.966 54.3619C10.1836 54.6071 9.35833 54.6995 8.49032 54.6394C7.61933 54.5784 6.74486 54.3877 5.8664 54.0675C4.56613 53.5939 3.48672 52.9406 2.62717 52.1081C1.76315 51.2776 1.19708 50.2972 0.927968 49.1673C0.657866 48.0404 0.768793 46.8048 1.26075 45.4609ZM10.1423 31.4855L9.00068 30.9469L11.5948 27.5786C12.1285 26.8856 12.702 26.3276 13.3153 25.9041C13.9272 25.4837 14.5773 25.2776 15.2662 25.2861C15.9557 25.295 16.6919 25.5998 17.4748 26.2005C17.8757 26.5078 18.1891 26.9044 18.4154 27.3895C18.6413 27.875 18.7661 28.3863 18.7895 28.9244C18.8179 29.4615 18.7447 29.9669 18.5716 30.441L26.1952 31.3112L24.8273 33.0875L17.6897 32.1785L16.4034 33.849L21.3304 37.6283L20.1495 39.1613L10.1423 31.4855ZM12.705 28.4985L11.4878 30.0786L15.2876 32.9931L16.178 31.8365C16.5486 31.3554 16.8277 30.8793 17.0157 30.4077C17.2037 29.9366 17.2375 29.4759 17.1172 29.0262C16.9998 28.5784 16.6804 28.1545 16.1591 27.7548C15.7453 27.4371 15.3294 27.2763 14.9121 27.2723C14.4898 27.2688 14.0893 27.3775 13.7108 27.5985C13.3323 27.8194 12.997 28.1197 12.705 28.4985ZM25.5008 14.1145L26.9602 13.0561L38.9959 21.4219L37.2718 22.6719L33.3064 19.874L29.6941 22.4927L31.1217 27.1303L29.7383 28.1331L25.5008 14.1145ZM32.0986 19.0137L27.5551 15.7422L29.2518 21.0774L32.0986 19.0137ZM40.2887 5.56298L42.6525 4.72799L51.2828 11.3151C51.4484 11.4457 51.624 11.5812 51.8106 11.7217C51.9951 11.8661 52.1782 12.0061 52.3592 12.1417C52.2752 11.9441 52.1871 11.7405 52.0956 11.5315C52.0006 11.324 51.9175 11.119 51.8459 10.917L48.8698 2.5303L50.374 1.99862L55.0309 15.1217L53.7928 15.5591L43.7752 7.9513C43.6205 7.82024 43.4513 7.68571 43.2693 7.5477C43.0872 7.4092 42.9057 7.27913 42.7261 7.15701C42.8181 7.33771 42.9062 7.52735 42.9902 7.72493C43.0758 7.92548 43.1519 8.12058 43.219 8.31021L46.6518 17.9836L45.162 18.5103L40.9483 6.63626L40.2887 5.56298ZM65.832 13.9774L65.5171 1.57815L61.4696 1.68041L61.4338 0.256654L71.5842 0L71.62 1.42376L67.5133 1.52751L67.8287 13.9273L65.832 13.9774ZM93.4635 6.03359L93.7057 4.79699L95.7307 5.66822L90.8117 17.0588L96.0819 19.3255L95.5168 20.6331L88.4678 17.6014L93.4635 6.03359ZM109.599 13.3003L111.395 14.5771L103.355 25.8386L101.772 24.7137L109.097 14.4555C109.104 14.4446 109.143 14.3527 109.214 14.1805C109.286 14.0052 109.365 13.824 109.449 13.6374C109.536 13.4478 109.585 13.3356 109.599 13.3003ZM119.962 22.5523L121.721 24.7197L116.957 32.7717C116.779 33.077 116.598 33.3694 116.413 33.6504C116.226 33.9334 116.011 34.2362 115.768 34.5604C116.138 34.3926 116.472 34.2461 116.769 34.12C117.067 33.9939 117.378 33.8803 117.703 33.7785L126.615 30.7488L128.194 32.6933L117.427 41.3972L116.22 39.9099L123.914 33.6906C124.091 33.5472 124.27 33.4146 124.452 33.293C124.632 33.1738 124.823 33.0378 125.027 32.8859C124.82 32.9554 124.605 33.0234 124.382 33.089C124.161 33.1575 123.938 33.2334 123.713 33.3178L113.644 36.7675L112.927 35.8838L118.422 26.6806C118.53 26.4949 118.644 26.3018 118.761 26.1007C118.876 25.9017 118.983 25.722 119.082 25.5611C118.919 25.7269 118.759 25.8778 118.601 26.0139C118.444 26.1494 118.281 26.2849 118.114 26.4199L110.359 32.6893L109.364 31.4631L119.172 23.5347L119.962 22.5523ZM132.619 44.1017L133.679 43.4167L136.65 51.2572L135.315 51.7611L133.124 45.9787L128.822 47.602L130.516 52.0704L129.186 52.5728L127.492 48.1039L122.834 49.8618L125.025 55.6442L123.69 56.1481L120.814 48.5572L132.619 44.1017ZM18.9044 91.6218C19.0775 92.092 19.2128 92.6187 19.3103 93.201C19.4093 93.7863 19.4436 94.3741 19.4143 94.9643C19.3849 95.5546 19.2566 96.0823 19.0298 96.5479L17.4619 95.9572C17.6255 95.4726 17.7404 95.0338 17.8071 94.6406C17.8772 94.2465 17.8966 93.8583 17.8653 93.4765C17.833 93.0918 17.722 92.6405 17.532 92.1237C17.2455 91.3434 16.8535 90.7407 16.3561 90.3152C15.8587 89.8898 15.2951 89.6009 14.6654 89.448C14.0341 89.3001 13.3681 89.2643 12.6682 89.3413C11.9663 89.4222 11.2709 89.589 10.582 89.8407C9.94628 90.073 9.33495 90.3778 8.74849 90.7536C8.16252 91.1329 7.66659 91.5777 7.25919 92.0885C6.8523 92.5988 6.58568 93.1667 6.45983 93.7922C6.33398 94.4177 6.41009 95.1078 6.68715 95.8633C6.91348 96.4794 7.24676 96.9649 7.68698 97.3204C8.12471 97.6798 8.62413 97.8992 9.18473 97.9786C9.7493 98.06 10.3388 97.9886 10.9531 97.7637L12.1255 97.3348L10.9794 94.2147L12.3628 93.9561L14.1172 98.7347L10.4253 100.064C9.90699 100.253 9.38917 100.462 8.87135 100.69C8.35452 100.921 7.84417 101.15 7.33978 101.377L6.97467 100.383L8.13566 99.3051C7.37211 98.9695 6.7553 98.544 6.28424 98.0283C5.81318 97.512 5.43215 96.8577 5.14116 96.0654C4.79247 95.1147 4.66612 94.2202 4.76262 93.3807C4.85763 92.5383 5.12872 91.7668 5.57491 91.0663C6.0216 90.3659 6.59961 89.7558 7.30943 89.236C8.01976 88.7167 8.82111 88.2933 9.71448 87.9667C11.0267 87.4871 12.2892 87.2885 13.5019 87.3719C14.7136 87.4519 15.792 87.8406 16.7376 88.5375C17.6832 89.2345 18.4055 90.2626 18.9044 91.6218ZM22.7485 102.31L23.5713 101.334L26.2031 104.741C26.7433 105.441 27.1423 106.146 27.3984 106.857C27.6531 107.564 27.686 108.253 27.4979 108.922C27.3099 109.591 26.8209 110.229 26.0305 110.837C25.6221 111.151 25.1531 111.356 24.6223 111.452C24.0871 111.547 23.5524 111.539 23.0181 111.425C22.4839 111.311 22.0073 111.107 21.5885 110.813L18.7577 118.036L17.3723 116.242L20.1127 109.501L18.8084 107.813L13.8237 111.647L12.6259 110.096L22.7485 102.31ZM25.0088 105.585L23.7777 103.991L19.9351 106.947L20.8394 108.118C21.215 108.604 21.6099 108.999 22.0248 109.304C22.4376 109.606 22.8793 109.76 23.3499 109.764C23.8215 109.764 24.3209 109.561 24.8496 109.154C25.2655 108.835 25.5296 108.469 25.642 108.058C25.7564 107.65 25.753 107.232 25.6316 106.805C25.5147 106.378 25.3073 105.972 25.0088 105.585ZM36.3431 114.521L37.824 115.591L33.5342 129.778L31.7887 128.516L33.2452 123.829L29.5811 121.18L25.5565 124.011L24.1517 122.995L36.3431 114.521ZM33.6904 122.398L35.4169 117.002L30.8048 120.312L33.6904 122.398ZM46.4304 120.597L48.8275 121.441L51.4206 132.109C51.4703 132.315 51.5226 132.534 51.5768 132.767C51.6325 132.996 51.6892 133.222 51.7469 133.445C51.8071 133.236 51.8658 133.019 51.9245 132.795C51.9827 132.57 52.0478 132.356 52.1205 132.15L55.1224 123.657L56.646 124.194L51.9474 137.486L50.6948 137.045L47.6566 124.695C47.6193 124.493 47.5725 124.279 47.5158 124.053C47.4581 123.83 47.3979 123.613 47.3357 123.402C47.2925 123.604 47.2412 123.809 47.181 124.019C47.1208 124.228 47.0567 124.429 46.9885 124.622L43.525 134.421L42.0158 133.89L46.2673 121.862L46.4304 120.597ZM65.6877 138.952L65.9882 126.394L61.8864 126.296L61.9207 124.857L72.1955 125.102L72.1607 126.541L68.0047 126.442L67.7043 139L65.6877 138.952ZM87.1263 122.862L86.3866 121.823L88.4395 120.941L93.4167 132.479L98.7511 130.187L99.3211 131.509L92.1801 134.577L87.1263 122.862ZM98.8859 115.248L100.704 113.959L108.828 125.373L107.229 126.507L99.8275 116.109C99.8195 116.099 99.7449 116.03 99.6027 115.905C99.4579 115.781 99.3097 115.647 99.159 115.504C99.0107 115.358 98.9197 115.273 98.8859 115.248ZM105.589 109.448L107.373 107.257L116.36 110.289C116.7 110.399 117.029 110.518 117.348 110.644C117.666 110.771 118.013 110.92 118.387 111.092C118.142 110.762 117.925 110.463 117.738 110.196C117.551 109.93 117.374 109.646 117.206 109.344L112.337 101.162L113.94 99.1934L124.827 108.024L123.598 109.533L115.819 103.222C115.64 103.076 115.472 102.928 115.315 102.775C115.158 102.622 114.984 102.46 114.792 102.287C114.903 102.475 115.015 102.672 115.128 102.878C115.239 103.087 115.36 103.294 115.492 103.498L121.016 112.734L120.288 113.629L110.008 110.114C109.798 110.042 109.583 109.969 109.362 109.896C109.139 109.825 108.938 109.758 108.76 109.694C108.956 109.819 109.138 109.946 109.306 110.074C109.475 110.202 109.643 110.334 109.812 110.472L117.653 116.832L116.644 118.072L106.726 110.027L105.589 109.448ZM117.723 93.822L116.461 93.6294L119.481 85.6905L120.829 86.2014L118.602 92.0547L122.957 93.7044L124.677 89.1824L126.025 89.6932L124.306 94.2152L129.022 96.0018L131.248 90.1484L132.596 90.6593L129.672 98.348L117.723 93.822ZM0.0917969 71.7146C0.0917969 68.7564 2.49486 66.3586 5.45851 66.3586C8.42217 66.3586 10.8252 68.7564 10.8252 71.7146C10.8252 74.6723 8.42217 77.07 5.45851 77.07C2.49486 77.07 0.0917969 74.6723 0.0917969 71.7146ZM124.972 71.7146C124.972 68.7564 127.374 66.3586 130.339 66.3586C133.302 66.3586 135.705 68.7564 135.705 71.7146C135.705 74.6723 133.302 77.07 130.339 77.07C127.374 77.07 124.972 74.6723 124.972 71.7146Z" fill="white" />
  </g>
  <defs>
    <clipPath id="clip0_102_191">
      <rect width="137" height="139" fill="white" />
    </clipPath>
    <clipPath id="clip1_102_191">
      <rect width="92.7449" height="63.0568" fill="white" transform="translate(21.998 37.9717)" />
    </clipPath>
    <clipPath id="clip2_102_191">
      <rect width="92.7449" height="63.0568" fill="white" transform="translate(21.998 37.9717)" />
    </clipPath>
  </defs>
</svg>