<svg xmlns="http://www.w3.org/2000/svg" xmlns:xlink="http://www.w3.org/1999/xlink" xmlns:svgjs="http://svgjs.dev/svgjs" version="1.1" width="1000" height="707" viewBox="0 0 1000 707">
  <g transform="matrix(1,0,0,1,-0.6060606060606233,0.00019896686154652343)"><svg xmlns="http://www.w3.org/2000/svg" xmlns:xlink="http://www.w3.org/1999/xlink" viewBox="0 0 396 280" data-background-color="#c57c33" preserveAspectRatio="xMidYMid meet" height="707" width="1000">
      <g id="tight-bounds" transform="matrix(1,0,0,1,0.2400000000000091,-0.00007879875704475126)"><svg viewBox="0 0 395.52 280" height="280" width="395.52">
          <g><svg viewBox="0 0 395.52 280" height="280" width="395.52">
              <g><svg viewBox="0 0 395.52 280" height="280" width="395.52">
                  <g><svg viewBox="0 0 395.52 280" height="280" width="395.52">
                      <g><svg viewBox="0 0 395.52 280" height="280" width="395.52">
                          <g transform="matrix(1,0,0,1,104.53504196836556,76.48954149564466)"><svg viewBox="0 0 186.44991606326886 127.0209170087107" height="127.0209170087107" width="186.44991606326886">
                              <g><svg xmlns="http://www.w3.org/2000/svg" xmlns:xlink="http://www.w3.org/1999/xlink" version="1.1" x="0" y="0" viewBox="15.865000000000022 26.743000000000002 68.272 46.511" enable-background="new 0 0 100 100" xml:space="preserve" height="127.0209170087107" width="186.44991606326886" class="icon-n$-0" data-fill-palette-color="accent" id="n$-0">
                                  <path fill="#ffffff" d="M83.914 51.17c-0.145-0.145-0.338-0.224-0.541-0.224h-2.484-15.32c0.42-0.642 0.668-1.402 0.668-2.223 0-2.068-1.539-3.784-3.533-4.06-2.18-11.082-10.428-17.92-21.732-17.92-11.307 0-19.559 6.85-21.736 17.945-1.914 0.345-3.371 2.021-3.371 4.034 0 2.012 1.457 3.689 3.371 4.033 2.176 11.098 10.43 17.945 21.736 17.945 1.914 0 3.73-0.211 5.455-0.592 3.76 1.996 8.169 3.146 12.88 3.146 13.658 0 24.797-9.664 24.83-21.543C84.137 51.51 84.057 51.314 83.914 51.17zM80.102 52.475c-0.258 4.273-2.555 8.26-6.051 11.264L62.572 53.336l-0.953-0.861h2.127H80.102zM72.842 64.705c-3.482 2.576-7.918 4.236-12.645 4.428v-9.301-6.334-0.252l0.049 0.045 1.91 1.732L72.842 64.705zM40.971 68.41c-10.572 0-17.914-6.336-19.639-16.945-0.092-0.558-0.574-0.962-1.131-0.962-0.031 0-0.062 0.002-0.096 0.004-0.051 0.005-0.104 0.012-0.145 0.021-0.996 0-1.805-0.81-1.805-1.805 0-0.994 0.807-1.803 1.789-1.803 0.002 0 0.004 0 0.006 0l0.145 0.017c0.604 0.065 1.139-0.362 1.236-0.957 1.725-10.61 9.066-16.944 19.639-16.944 10.583 0 17.925 6.34 19.642 16.959 0.1 0.616 0.742 1.032 1.359 0.941 0.055-0.007 0.109-0.019 0.166-0.019 0.996 0 1.807 0.811 1.807 1.806s-0.811 1.805-1.807 1.805c-0.061 0-0.117-0.012-0.238-0.028-0.418-0.049-0.818 0.132-1.062 0.446H37.975h-2.732c-0.201 0-0.396 0.08-0.541 0.224-0.143 0.145-0.223 0.34-0.223 0.543 0.018 6.648 3.518 12.604 8.99 16.557C42.655 68.354 41.827 68.41 40.971 68.41zM58.668 53.246v4.57 4.432 6.891c-2.246-0.062-4.424-0.477-6.473-1.162-0.975-0.326-1.914-0.719-2.818-1.166-1.205-0.596-2.352-1.279-3.402-2.062L58.668 53.246zM44.772 63.777c-3.473-3.01-5.754-7.01-6.008-11.303h18.48L44.772 63.777zM59.307 71.729c-3.828 0-7.443-0.805-10.632-2.223-1.041-0.463-2.039-0.986-2.98-1.574-5.623-3.5-9.371-9.105-9.668-15.457h1.211c0.33 6.115 4.395 11.699 10.189 15.027 0.91 0.523 1.865 0.986 2.854 1.393 2.783 1.139 5.841 1.787 9.003 1.787 11.588 0 21.809-8.424 22.344-18.207h0.963C82.09 63.16 71.826 71.729 59.307 71.729z" data-fill-palette-color="accent" />
                                  <path fill="#ffffff" d="M51.131 36.549c0.299 0 0.598-0.122 0.811-0.336s0.336-0.512 0.336-0.811c0-0.297-0.123-0.595-0.336-0.81-0.428-0.427-1.193-0.427-1.619 0-0.215 0.215-0.338 0.513-0.338 0.81 0 0.307 0.123 0.597 0.338 0.818C50.536 36.427 50.834 36.549 51.131 36.549z" data-fill-palette-color="accent" />
                                  <path fill="#ffffff" d="M53.576 38.995c0.299 0 0.596-0.122 0.811-0.336 0.213-0.214 0.336-0.512 0.336-0.81s-0.123-0.597-0.336-0.81c-0.428-0.43-1.191-0.43-1.619 0-0.215 0.213-0.338 0.512-0.338 0.81 0 0.306 0.123 0.596 0.338 0.817C52.98 38.873 53.279 38.995 53.576 38.995z" data-fill-palette-color="accent" />
                                  <path fill="#ffffff" d="M49.909 40.218c0.299 0 0.598-0.123 0.811-0.337 0.213-0.215 0.335-0.505 0.335-0.81 0-0.299-0.123-0.597-0.335-0.811-0.428-0.428-1.191-0.42-1.619 0-0.215 0.214-0.336 0.512-0.336 0.811 0 0.305 0.121 0.595 0.336 0.816C49.313 40.095 49.612 40.218 49.909 40.218z" data-fill-palette-color="accent" />
                                  <path fill="#ffffff" d="M51.209 41.515c0 0.307 0.121 0.597 0.336 0.811 0.213 0.215 0.512 0.336 0.809 0.336 0.299 0 0.596-0.121 0.811-0.336 0.215-0.214 0.336-0.512 0.336-0.811 0-0.297-0.121-0.595-0.336-0.809-0.42-0.428-1.201-0.428-1.619 0C51.33 40.92 51.209 41.218 51.209 41.515z" data-fill-palette-color="accent" />
                                  <path fill="#ffffff" d="M56.021 42.051c0.297 0 0.596-0.123 0.809-0.336 0.215-0.214 0.338-0.504 0.338-0.811 0-0.298-0.123-0.597-0.338-0.81-0.434-0.429-1.189-0.429-1.619 0-0.213 0.213-0.336 0.512-0.336 0.81 0 0.307 0.123 0.597 0.336 0.818C55.426 41.928 55.723 42.051 56.021 42.051z" data-fill-palette-color="accent" />
                                  <path fill="#ffffff" d="M32.563 32.337c-8.229 3.536-9.244 12.525-9.283 12.906-0.064 0.63 0.393 1.192 1.023 1.257 0.039 0.004 0.078 0.007 0.117 0.007 0.58 0 1.08-0.438 1.139-1.029 0.01-0.08 0.904-8.023 7.908-11.035 0.582-0.25 0.85-0.924 0.602-1.506C33.819 32.357 33.147 32.086 32.563 32.337z" data-fill-palette-color="accent" />
                                  <path fill="#ffffff" d="M36.165 33.204c0.297 0 0.588-0.123 0.811-0.336 0.213-0.215 0.334-0.512 0.334-0.811 0-0.298-0.121-0.596-0.334-0.817-0.436-0.42-1.201-0.42-1.621 0.008-0.213 0.214-0.336 0.512-0.336 0.81 0 0.299 0.123 0.596 0.336 0.811C35.567 33.081 35.858 33.204 36.165 33.204z" data-fill-palette-color="accent" />
                                </svg></g>
                            </svg></g>
                          <path d="M97.525 184.516V184.516C97.873 185.466 98.145 186.528 98.342 187.704 98.541 188.885 98.611 190.072 98.551 191.263 98.492 192.454 98.234 193.52 97.777 194.46V194.46L94.619 193.267C94.948 192.289 95.18 191.403 95.314 190.61 95.455 189.814 95.494 189.031 95.431 188.26 95.366 187.483 95.142 186.573 94.76 185.529V185.529C94.183 183.955 93.393 182.738 92.391 181.879 91.389 181.02 90.254 180.437 88.985 180.129 87.713 179.829 86.372 179.758 84.962 179.913 83.548 180.077 82.147 180.413 80.76 180.921V180.921C79.479 181.391 78.248 182.005 77.066 182.764 75.886 183.529 74.886 184.427 74.066 185.458 73.246 186.488 72.709 187.635 72.456 188.897 72.203 190.159 72.356 191.553 72.914 193.078V193.078C73.37 194.321 74.041 195.301 74.927 196.018 75.81 196.744 76.816 197.187 77.945 197.347 79.082 197.511 80.27 197.367 81.507 196.914V196.914L83.869 196.048 81.561 189.75 84.346 189.228 87.881 198.873 80.444 201.556C79.4 201.938 78.357 202.359 77.314 202.82 76.273 203.286 75.244 203.748 74.228 204.206V204.206L73.493 202.2 75.832 200.024C74.294 199.348 73.051 198.488 72.102 197.447 71.153 196.405 70.386 195.085 69.8 193.485V193.485C69.097 191.567 68.842 189.761 69.037 188.066 69.229 186.366 69.774 184.809 70.674 183.395 71.573 181.981 72.738 180.749 74.168 179.701 75.598 178.652 77.213 177.798 79.012 177.139V177.139C81.656 176.17 84.199 175.77 86.642 175.938 89.082 176.099 91.255 176.884 93.16 178.291 95.065 179.698 96.52 181.773 97.525 184.516ZM105.016 205.712L106.682 203.749 111.955 210.649C113.037 212.067 113.834 213.493 114.345 214.928 114.852 216.359 114.913 217.748 114.528 219.098 114.144 220.447 113.153 221.731 111.556 222.952V222.952C110.731 223.582 109.784 223.992 108.714 224.181 107.635 224.369 106.558 224.346 105.483 224.112 104.408 223.878 103.45 223.463 102.609 222.866V222.866L96.846 237.421 94.07 233.788 99.646 220.206 97.034 216.787 86.96 224.484 84.56 221.343ZM109.542 212.342L107.075 209.114 99.31 215.048 101.122 217.419C101.874 218.403 102.666 219.204 103.5 219.824 104.329 220.438 105.218 220.751 106.166 220.764 107.115 220.767 108.123 220.361 109.191 219.545V219.545C110.032 218.902 110.567 218.167 110.797 217.338 111.03 216.515 111.027 215.672 110.786 214.809 110.555 213.947 110.14 213.125 109.542 212.342ZM131.945 230.207L134.91 232.392 126.033 260.956 122.537 258.38 125.55 248.943 118.214 243.535 110.059 249.181 107.246 247.108ZM126.47 246.062L130.038 235.2 120.693 241.804ZM151.76 242.457L156.567 244.221 161.522 265.815C161.617 266.233 161.716 266.677 161.82 267.147 161.926 267.611 162.035 268.069 162.146 268.521V268.521C162.272 268.1 162.396 267.663 162.519 267.212 162.642 266.761 162.779 266.329 162.931 265.917V265.917L169.191 248.851 172.246 249.972 162.448 276.681 159.937 275.76 154.127 250.758C154.057 250.349 153.968 249.916 153.859 249.458 153.749 249.006 153.633 248.567 153.513 248.14V248.14C153.421 248.546 153.312 248.959 153.186 249.381 153.059 249.803 152.925 250.207 152.783 250.594V250.594L145.56 270.284 142.533 269.174 151.399 245.004ZM206.485 266.333V266.333C206.398 269.073 205.846 271.479 204.828 273.551 203.804 275.629 202.311 277.243 200.351 278.393 198.383 279.549 195.953 280.082 193.059 279.99V279.99L183.681 279.693 184.495 253.961C184.496 253.935 184.459 253.734 184.385 253.359 184.303 252.983 184.233 252.588 184.173 252.174 184.106 251.759 184.06 251.511 184.036 251.43V251.43L192.018 251.683C195.091 251.78 197.723 252.36 199.913 253.421 202.103 254.489 203.774 256.087 204.925 258.214 206.069 260.347 206.589 263.054 206.485 266.333ZM202.305 266.201V266.201C202.364 264.318 202.184 262.665 201.763 261.24 201.342 259.815 200.687 258.619 199.799 257.652 198.911 256.678 197.789 255.937 196.434 255.428 195.085 254.919 193.479 254.635 191.617 254.576V254.576L188.444 254.476 187.734 276.915 192.732 277.073C195 277.145 196.822 276.69 198.198 275.708 199.574 274.733 200.588 273.41 201.24 271.74 201.886 270.062 202.241 268.216 202.305 266.201ZM236.221 247.084L234.706 245.005 238.818 243.174 249.133 266.336 259.821 261.576 261.003 264.23 246.695 270.602ZM259.36 231.685V231.685L263 229.053 279.557 251.955 276.353 254.271 261.27 233.407C261.255 233.386 261.103 233.249 260.814 232.998 260.52 232.751 260.22 232.483 259.914 232.195 259.613 231.904 259.428 231.734 259.36 231.685ZM272.453 220.182L276.03 215.744 294.158 221.79C294.844 222.01 295.509 222.246 296.151 222.499 296.793 222.751 297.493 223.05 298.249 223.395V223.395C297.752 222.729 297.313 222.128 296.934 221.591 296.554 221.054 296.195 220.483 295.855 219.875V219.875L285.977 203.402 289.191 199.415 311.194 217.148 308.732 220.202 293.009 207.53C292.646 207.238 292.307 206.939 291.99 206.632 291.673 206.325 291.32 205.999 290.933 205.652V205.652C291.158 206.03 291.385 206.427 291.615 206.843 291.84 207.263 292.086 207.679 292.352 208.091V208.091L303.558 226.686 302.099 228.497 281.361 221.49C280.939 221.346 280.504 221.201 280.058 221.055 279.608 220.914 279.203 220.78 278.844 220.653V220.653C279.24 220.904 279.608 221.157 279.948 221.414 280.288 221.671 280.629 221.938 280.971 222.213V222.213L296.818 234.985 294.795 237.496 274.75 221.341ZM296.587 188.957L294.043 188.568 300.126 172.544 302.842 173.575 298.357 185.39 307.129 188.72 310.594 179.593 313.31 180.624 309.845 189.751 319.346 193.357 323.831 181.542 326.546 182.573 320.655 198.093Z" fill="#ffffff" data-fill-palette-color="primary" />
                          <path d="M61.875 91.343V91.343C62.215 90.411 62.688 89.436 63.294 88.417 63.897 87.405 64.6 86.468 65.404 85.607 66.207 84.745 67.079 84.104 68.019 83.682V83.682L69.642 86.601C68.77 87.126 68.032 87.643 67.429 88.152 66.816 88.666 66.289 89.235 65.849 89.86 65.401 90.484 64.99 91.311 64.613 92.342V92.342C64.042 93.905 63.863 95.327 64.075 96.609 64.285 97.897 64.771 99.06 65.533 100.096 66.293 101.138 67.257 102.05 68.424 102.83 69.594 103.605 70.863 104.242 72.232 104.741V104.741C73.501 105.205 74.826 105.525 76.206 105.704 77.58 105.879 78.905 105.842 80.179 105.592 81.456 105.335 82.59 104.811 83.581 104.018 84.578 103.227 85.352 102.075 85.905 100.562V100.562C86.35 99.343 86.47 98.179 86.266 97.07 86.055 95.959 85.575 94.983 84.827 94.143 84.074 93.295 83.088 92.648 81.869 92.203V92.203L79.525 91.347 77.251 97.573 74.821 96.197 78.303 86.66 85.631 89.379C86.662 89.755 87.716 90.101 88.791 90.416 89.875 90.726 90.945 91.036 92.002 91.343V91.343L91.279 93.322 88.124 93.466C88.86 94.961 89.251 96.403 89.296 97.794 89.349 99.181 89.086 100.668 88.506 102.256V102.256C87.815 104.15 86.858 105.675 85.636 106.83 84.413 107.984 83.01 108.811 81.425 109.309 79.849 109.804 78.187 109.99 76.439 109.869 74.684 109.746 72.923 109.361 71.154 108.715V108.715C68.534 107.759 66.359 106.44 64.628 104.76 62.888 103.083 61.747 101.104 61.205 98.824 60.661 96.549 60.884 94.056 61.875 91.343ZM79.438 63.611L77.135 62.533 82.332 55.713C83.401 54.31 84.552 53.179 85.784 52.319 87.013 51.465 88.321 51.044 89.709 51.056 91.097 51.068 92.583 51.677 94.165 52.883V52.883C94.975 53.5 95.61 54.298 96.07 55.275 96.529 56.253 96.785 57.285 96.836 58.37 96.897 59.454 96.755 60.475 96.41 61.433V61.433L111.774 63.127 109.033 66.723 94.648 64.948 92.07 68.33 102.026 75.917 99.66 79.022ZM84.576 57.561L82.138 60.761 89.815 66.611 91.6 64.269C92.342 63.295 92.901 62.332 93.275 61.379 93.65 60.426 93.715 59.497 93.469 58.59 93.228 57.687 92.581 56.834 91.528 56.031V56.031C90.691 55.394 89.853 55.073 89.012 55.067 88.161 55.064 87.355 55.286 86.595 55.736 85.834 56.185 85.161 56.793 84.576 57.561ZM109.762 28.774L112.684 26.615 137.067 43.301 133.615 45.852 125.581 40.27 118.347 45.616 121.3 54.952 118.53 56.999ZM123.133 38.554L113.928 32.026 117.433 42.766ZM138.868 11.504L143.608 9.76 161.155 22.842C161.492 23.101 161.85 23.37 162.229 23.648 162.604 23.936 162.976 24.214 163.344 24.482V24.482C163.17 24.086 162.988 23.678 162.798 23.258 162.602 22.841 162.429 22.43 162.28 22.024V22.024L156.077 5.171 159.094 4.06 168.799 30.431 166.317 31.345 145.95 16.237C145.634 15.978 145.291 15.71 144.921 15.435 144.55 15.161 144.182 14.902 143.817 14.661V14.661C144.007 15.024 144.189 15.403 144.364 15.8 144.54 16.203 144.699 16.595 144.839 16.976V16.976L151.993 36.415 149.005 37.514 140.223 13.654ZM205.747 13.535V13.535C205.837 16.236 205.444 18.642 204.568 20.755 203.692 22.862 202.323 24.548 200.46 25.815 198.598 27.075 196.24 27.752 193.386 27.847V27.847L184.128 28.153 183.288 2.742C183.287 2.715 183.234 2.521 183.129 2.158 183.03 1.788 182.934 1.402 182.841 0.999 182.754 0.589 182.696 0.348 182.667 0.276V0.276L190.548 0.015C193.581-0.085 196.212 0.32 198.439 1.232 200.666 2.137 202.413 3.604 203.678 5.633 204.951 7.662 205.64 10.296 205.747 13.535ZM201.607 13.672V13.672C201.545 11.81 201.262 10.191 200.757 8.816 200.252 7.441 199.532 6.303 198.597 5.402 197.662 4.501 196.511 3.843 195.146 3.429 193.774 3.014 192.17 2.838 190.334 2.898V2.898L187.201 3.002 187.934 25.151 192.872 24.987C195.114 24.913 196.883 24.352 198.18 23.304 199.47 22.249 200.38 20.877 200.911 19.188 201.441 17.5 201.673 15.661 201.607 13.672ZM249.223 12.403L249.743 9.913 253.8 11.722 243.609 34.589 254.168 39.294 252.997 41.92 238.874 35.626ZM281.068 27.12V27.12L284.665 29.727 268.283 52.324 265.115 50.027 280.038 29.442C280.053 29.421 280.134 29.237 280.278 28.889 280.427 28.537 280.588 28.173 280.762 27.797 280.939 27.416 281.041 27.19 281.068 27.12ZM301.39 45.533L304.916 49.922 295.252 66.136C294.891 66.75 294.524 67.339 294.15 67.904 293.771 68.474 293.335 69.084 292.843 69.736V69.736C293.589 69.401 294.263 69.107 294.863 68.855 295.463 68.604 296.091 68.376 296.748 68.174V68.174L314.725 62.132 317.888 66.07 296.129 83.549 293.709 80.538 309.258 68.047C309.616 67.76 309.979 67.494 310.346 67.25 310.709 67.01 311.096 66.737 311.508 66.432V66.432C311.09 66.571 310.657 66.706 310.207 66.837 309.761 66.973 309.312 67.125 308.858 67.293V67.293L288.546 74.173 287.108 72.383 298.253 53.853C298.474 53.479 298.703 53.09 298.941 52.685 299.174 52.285 299.391 51.923 299.592 51.599V51.599C299.263 51.932 298.938 52.235 298.62 52.508 298.301 52.781 297.974 53.053 297.636 53.324V53.324L281.963 65.915 279.968 63.432 299.79 47.509ZM326.485 88.6L328.62 87.216 334.604 103.043 331.915 104.059 327.502 92.388 318.837 95.664 322.248 104.684 319.568 105.697 316.157 96.678 306.773 100.226 311.187 111.897 308.498 112.914 302.704 97.592Z" fill="#ffffff" data-fill-palette-color="primary" />
                          <path d="M61.17 144.334C61.17 138.364 66.01 133.524 71.981 133.524 77.951 133.524 82.791 138.364 82.791 144.334 82.791 150.305 77.951 155.145 71.981 155.145 66.01 155.145 61.17 150.305 61.17 144.334ZM312.729 144.334C312.729 138.364 317.569 133.524 323.539 133.524 329.51 133.524 334.35 138.364 334.35 144.334 334.35 150.305 329.51 155.145 323.539 155.145 317.569 155.145 312.729 150.305 312.729 144.334Z" fill="#ffffff" data-fill-palette-color="primary" />
                        </svg></g>
                    </svg></g>
                </svg></g>
            </svg></g>
          <defs />
        </svg>
        <rect width="395.52" height="280" fill="none" stroke="none" visibility="hidden" />
      </g>
    </svg></g>
</svg>