<svg aria-hidden="true" style="position: absolute; width: 0; height: 0; overflow: hidden;" version="1.1" xmlns="http://www.w3.org/2000/svg" xmlns:xlink="http://www.w3.org/1999/xlink">
  <defs>
    <symbol id="arrow" viewBox="0 0 35 32">
      <path fill="#fff" style="fill: var(--color1, #fff)" d="M17.195 19.966c-0.18 0-0.355-0.033-0.524-0.1s-0.31-0.156-0.422-0.267l-6.214-6.133c-0.248-0.244-0.371-0.556-0.371-0.933s0.124-0.689 0.371-0.933c0.248-0.244 0.563-0.367 0.946-0.367s0.698 0.122 0.946 0.367l5.269 5.2 5.268-5.2c0.248-0.244 0.563-0.367 0.946-0.367s0.698 0.122 0.946 0.367c0.248 0.244 0.372 0.556 0.372 0.933s-0.124 0.689-0.372 0.933l-6.214 6.133c-0.135 0.133-0.281 0.228-0.439 0.284s-0.326 0.084-0.507 0.083z"></path>
    </symbol>
    <symbol id="logo" viewBox="0 0 32 32">
      <path fill="#fff" style="fill: var(--color1, #fff)" d="M26.346 16.366c-0.045-0.045-0.106-0.070-0.169-0.070h-5.568c0.131-0.2 0.209-0.438 0.209-0.694 0-0.645-0.481-1.181-1.105-1.267-0.682-3.459-3.261-5.593-6.796-5.593s-6.117 2.138-6.798 5.601c-0.599 0.108-1.054 0.631-1.054 1.259s0.456 1.151 1.054 1.259c0.681 3.464 3.262 5.601 6.798 5.601 0.599 0 1.167-0.066 1.706-0.185 1.176 0.623 2.555 0.982 4.028 0.982 4.271 0 7.755-3.016 7.765-6.724 0-0.063-0.025-0.124-0.070-0.169zM25.154 16.773c-0.081 1.334-0.799 2.578-1.892 3.516l-3.888-3.516h5.78zM22.883 20.59c-1.089 0.804-2.476 1.322-3.955 1.382v-4.959l0.015 0.014 3.939 3.562zM12.916 21.747c-3.306 0-5.602-1.978-6.142-5.289-0.029-0.174-0.18-0.3-0.354-0.3-0.010 0-0.019 0.001-0.030 0.001-0.016 0.002-0.033 0.004-0.045 0.007-0.311 0-0.564-0.253-0.564-0.563s0.252-0.563 0.559-0.563c0.001 0 0.001 0 0.002 0l0.045 0.005c0.189 0.020 0.356-0.113 0.387-0.299 0.539-3.312 2.835-5.288 6.142-5.288 3.31 0 5.606 1.979 6.143 5.293 0.031 0.192 0.232 0.322 0.425 0.294 0.017-0.002 0.034-0.006 0.052-0.006 0.311 0 0.565 0.253 0.565 0.564s-0.254 0.563-0.565 0.563c-0.019 0-0.037-0.004-0.074-0.009-0.131-0.015-0.256 0.041-0.332 0.139h-8.004c-0.063 0-0.124 0.025-0.169 0.070s-0.070 0.106-0.070 0.169c0.006 2.075 1.1 3.934 2.812 5.168-0.255 0.026-0.514 0.044-0.781 0.044zM18.451 17.014v4.96c-0.702-0.019-1.384-0.149-2.024-0.363-0.305-0.102-0.599-0.224-0.881-0.364-0.377-0.186-0.736-0.399-1.064-0.644l3.97-3.59zM14.105 20.3c-1.086-0.939-1.8-2.188-1.879-3.528h5.779l-3.9 3.528zM18.65 22.782c-1.197 0-2.328-0.251-3.325-0.694-0.326-0.145-0.638-0.308-0.932-0.491-1.759-1.092-2.931-2.842-3.024-4.824h0.379c0.103 1.909 1.374 3.651 3.187 4.69 0.285 0.163 0.583 0.308 0.893 0.435 0.87 0.355 1.827 0.558 2.816 0.558 3.624 0 6.821-2.629 6.988-5.683h0.301c-0.157 3.335-3.367 6.009-7.282 6.009z"></path>
      <path fill="#fff" style="fill: var(--color1, #fff)" d="M16.093 11.802c0.093 0 0.187-0.038 0.254-0.105s0.105-0.16 0.105-0.253c0-0.093-0.038-0.186-0.105-0.253-0.134-0.133-0.373-0.133-0.506 0-0.067 0.067-0.106 0.16-0.106 0.253 0 0.096 0.038 0.186 0.106 0.255 0.067 0.065 0.16 0.103 0.253 0.103z"></path>
      <path fill="#fff" style="fill: var(--color1, #fff)" d="M16.858 12.566c0.093 0 0.186-0.038 0.254-0.105s0.105-0.16 0.105-0.253-0.038-0.186-0.105-0.253c-0.134-0.134-0.372-0.134-0.506 0-0.067 0.066-0.106 0.16-0.106 0.253 0 0.096 0.038 0.186 0.106 0.255 0.066 0.065 0.16 0.103 0.253 0.103z"></path>
      <path fill="#fff" style="fill: var(--color1, #fff)" d="M15.711 12.947c0.094 0 0.187-0.038 0.254-0.105s0.105-0.158 0.105-0.253c0-0.093-0.038-0.186-0.105-0.253-0.134-0.134-0.372-0.131-0.506 0-0.067 0.067-0.105 0.16-0.105 0.253 0 0.095 0.038 0.186 0.105 0.255 0.066 0.065 0.16 0.103 0.253 0.103z"></path>
      <path fill="#fff" style="fill: var(--color1, #fff)" d="M16.118 13.352c0 0.096 0.038 0.186 0.105 0.253s0.16 0.105 0.253 0.105c0.093 0 0.186-0.038 0.254-0.105s0.105-0.16 0.105-0.253c0-0.093-0.038-0.186-0.105-0.252-0.131-0.134-0.376-0.134-0.506 0-0.068 0.067-0.105 0.16-0.105 0.252z"></path>
      <path fill="#fff" style="fill: var(--color1, #fff)" d="M17.623 13.519c0.093 0 0.186-0.038 0.253-0.105s0.106-0.157 0.106-0.253c0-0.093-0.038-0.186-0.106-0.253-0.136-0.134-0.372-0.134-0.506 0-0.067 0.066-0.105 0.16-0.105 0.253 0 0.096 0.038 0.186 0.105 0.255 0.067 0.064 0.16 0.103 0.253 0.103z"></path>
      <path fill="#fff" style="fill: var(--color1, #fff)" d="M10.286 10.488c-2.574 1.104-2.891 3.909-2.903 4.028-0.020 0.197 0.123 0.372 0.32 0.392 0.012 0.001 0.024 0.002 0.037 0.002 0.181 0 0.338-0.137 0.356-0.321 0.003-0.025 0.283-2.504 2.473-3.444 0.182-0.078 0.266-0.288 0.188-0.47s-0.288-0.266-0.471-0.187z"></path>
      <path fill="#fff" style="fill: var(--color1, #fff)" d="M11.413 10.758c0.093 0 0.184-0.038 0.254-0.105 0.067-0.067 0.104-0.16 0.104-0.253s-0.038-0.186-0.104-0.255c-0.136-0.131-0.376-0.131-0.507 0.002-0.067 0.067-0.105 0.16-0.105 0.253s0.038 0.186 0.105 0.253c0.066 0.066 0.157 0.105 0.253 0.105z"></path>
      <path fill="#fff" style="fill: var(--color1, #fff)" d="M0.29 10.466c0.039-0.106 0.093-0.217 0.162-0.334s0.149-0.222 0.241-0.321c0.092-0.098 0.191-0.171 0.299-0.22l0.185 0.333c-0.1 0.060-0.184 0.119-0.253 0.177s-0.13 0.123-0.181 0.195c-0.051 0.071-0.098 0.165-0.141 0.283-0.065 0.178-0.086 0.341-0.061 0.487s0.080 0.279 0.167 0.398c0.087 0.119 0.197 0.223 0.33 0.312s0.279 0.161 0.435 0.218c0.145 0.053 0.296 0.089 0.454 0.11s0.308 0.016 0.454-0.013c0.146-0.029 0.275-0.089 0.389-0.18s0.203-0.222 0.266-0.394c0.051-0.139 0.065-0.272 0.041-0.398s-0.079-0.238-0.164-0.334c-0.086-0.097-0.199-0.171-0.338-0.221l-0.268-0.098-0.26 0.71-0.278-0.157 0.398-1.088 0.838 0.31c0.118 0.043 0.238 0.082 0.361 0.118s0.246 0.071 0.367 0.106l-0.083 0.226-0.361 0.016c0.084 0.171 0.129 0.335 0.134 0.494s-0.024 0.328-0.090 0.509c-0.079 0.216-0.188 0.39-0.328 0.522s-0.3 0.226-0.481 0.283c-0.18 0.056-0.37 0.078-0.57 0.064s-0.402-0.058-0.604-0.132c-0.299-0.109-0.548-0.259-0.746-0.451-0.199-0.191-0.329-0.417-0.391-0.677s-0.037-0.544 0.077-0.853zM2.335 7.248l-0.263-0.124 0.597-0.775c0.123-0.16 0.255-0.288 0.396-0.386s0.291-0.144 0.449-0.142c0.159 0.002 0.328 0.072 0.508 0.21 0.092 0.071 0.164 0.162 0.217 0.274s0.081 0.229 0.086 0.353c0.007 0.124-0.010 0.24-0.050 0.349l1.755 0.2-0.315 0.409-1.643-0.209-0.296 0.385 1.134 0.87-0.272 0.353-2.304-1.767zM2.925 6.561l-0.28 0.364 0.875 0.671 0.205-0.266c0.085-0.111 0.15-0.22 0.193-0.329s0.051-0.215 0.023-0.318c-0.027-0.103-0.101-0.201-0.221-0.293-0.095-0.073-0.191-0.11-0.287-0.111-0.097-0.001-0.189 0.024-0.277 0.075s-0.164 0.12-0.232 0.207zM5.871 3.249l0.336-0.244 2.771 1.926-0.397 0.288-0.913-0.644-0.832 0.603 0.329 1.068-0.318 0.231-0.976-3.227zM7.39 4.377l-1.046-0.753 0.391 1.228 0.655-0.475zM9.275 1.281l0.544-0.192 1.987 1.516c0.038 0.030 0.079 0.061 0.121 0.094s0.085 0.065 0.126 0.097c-0.019-0.046-0.040-0.092-0.061-0.14s-0.041-0.095-0.057-0.141l-0.685-1.931 0.346-0.122 1.072 3.021-0.285 0.101-2.306-1.751c-0.036-0.030-0.075-0.061-0.116-0.093s-0.084-0.062-0.125-0.090c0.021 0.042 0.041 0.085 0.061 0.131s0.037 0.091 0.053 0.135l0.79 2.227-0.343 0.121-0.97-2.734-0.152-0.247zM15.156 3.218l-0.072-2.854-0.932 0.024-0.008-0.328 2.337-0.059 0.008 0.328-0.945 0.024 0.073 2.855-0.46 0.012zM21.517 1.389l0.056-0.285 0.466 0.201-1.132 2.622 1.213 0.522-0.13 0.301-1.623-0.698 1.15-2.663zM25.231 3.062l0.413 0.294-1.851 2.593-0.364-0.259 1.686-2.362c0.002-0.002 0.011-0.024 0.027-0.063s0.035-0.082 0.054-0.125c0.020-0.044 0.031-0.069 0.035-0.078zM27.617 5.192l0.405 0.499-1.097 1.854c-0.041 0.070-0.083 0.138-0.125 0.202s-0.093 0.135-0.148 0.21c0.085-0.039 0.162-0.072 0.23-0.101s0.14-0.055 0.215-0.079l2.052-0.697 0.363 0.448-2.479 2.004-0.278-0.342 1.771-1.432c0.041-0.033 0.082-0.064 0.124-0.092s0.085-0.059 0.132-0.094c-0.048 0.016-0.097 0.032-0.148 0.047s-0.102 0.033-0.154 0.053l-2.318 0.794-0.165-0.203 1.265-2.119c0.025-0.043 0.051-0.087 0.078-0.133s0.051-0.087 0.074-0.124c-0.038 0.038-0.074 0.073-0.111 0.104s-0.074 0.062-0.112 0.093l-1.785 1.443-0.229-0.282 2.258-1.825 0.182-0.226zM30.531 10.153l0.244-0.158 0.684 1.805-0.307 0.116-0.504-1.331-0.99 0.374 0.39 1.029-0.306 0.116-0.39-1.029-1.072 0.405 0.504 1.331-0.307 0.116-0.662-1.748 2.718-1.026zM4.352 21.093c0.040 0.108 0.071 0.23 0.093 0.364s0.031 0.27 0.024 0.406-0.036 0.257-0.089 0.365l-0.361-0.136c0.038-0.112 0.064-0.213 0.079-0.303s0.021-0.18 0.013-0.268c-0.007-0.089-0.033-0.192-0.077-0.311-0.066-0.18-0.156-0.318-0.271-0.416s-0.244-0.164-0.389-0.2c-0.145-0.034-0.299-0.042-0.46-0.025s-0.322 0.057-0.48 0.115c-0.146 0.053-0.287 0.124-0.422 0.21s-0.249 0.19-0.343 0.307c-0.094 0.117-0.155 0.248-0.184 0.392s-0.011 0.303 0.052 0.477c0.052 0.142 0.129 0.254 0.23 0.335s0.216 0.133 0.345 0.152c0.13 0.019 0.266 0.002 0.407-0.049l0.27-0.099-0.264-0.718 0.318-0.060 0.404 1.1-0.85 0.306c-0.119 0.044-0.239 0.092-0.358 0.144s-0.236 0.106-0.353 0.158l-0.084-0.229 0.267-0.248c-0.176-0.077-0.318-0.175-0.426-0.294s-0.196-0.27-0.263-0.452c-0.080-0.219-0.109-0.425-0.087-0.618s0.084-0.372 0.187-0.533c0.103-0.161 0.236-0.302 0.399-0.421s0.348-0.217 0.554-0.292c0.302-0.11 0.593-0.156 0.872-0.137s0.527 0.108 0.745 0.268 0.384 0.397 0.499 0.71zM5.237 23.553l0.189-0.225 0.606 0.784c0.124 0.161 0.216 0.323 0.275 0.487s0.066 0.321 0.023 0.475-0.156 0.301-0.338 0.441c-0.094 0.072-0.202 0.119-0.324 0.142-0.123 0.022-0.246 0.020-0.369-0.006s-0.233-0.073-0.329-0.141l-0.652 1.663-0.319-0.413 0.631-1.552-0.3-0.389-1.148 0.883-0.276-0.357 2.33-1.792zM5.757 24.307l-0.283-0.367-0.885 0.681 0.208 0.27c0.086 0.112 0.177 0.203 0.273 0.273s0.197 0.105 0.305 0.106c0.109 0 0.224-0.047 0.345-0.14 0.096-0.073 0.157-0.158 0.182-0.252s0.026-0.19-0.002-0.288c-0.027-0.098-0.075-0.192-0.143-0.281zM8.367 26.365l0.341 0.246-0.988 3.266-0.402-0.291 0.335-1.079-0.844-0.61-0.927 0.652-0.323-0.234 2.807-1.951zM7.756 28.178l0.397-1.242-1.062 0.762 0.664 0.48zM10.689 27.763l0.552 0.194 0.597 2.456c0.011 0.047 0.023 0.098 0.036 0.151s0.026 0.105 0.039 0.156c0.014-0.048 0.027-0.098 0.041-0.15s0.028-0.101 0.045-0.148l0.691-1.955 0.351 0.124-1.082 3.060-0.288-0.102-0.699-2.843c-0.009-0.047-0.019-0.096-0.032-0.148s-0.027-0.101-0.041-0.15c-0.010 0.047-0.022 0.094-0.036 0.142s-0.029 0.094-0.044 0.139l-0.797 2.256-0.347-0.122 0.979-2.769 0.038-0.291zM15.122 31.989l0.069-2.891-0.944-0.023 0.008-0.331 2.365 0.056-0.008 0.331-0.957-0.023-0.069 2.891-0.464-0.011zM20.058 28.285l-0.17-0.239 0.473-0.203 1.146 2.656 1.228-0.528 0.131 0.304-1.644 0.706-1.163-2.697zM22.765 26.532l0.419-0.297 1.87 2.628-0.368 0.261-1.704-2.394c-0.002-0.002-0.019-0.018-0.052-0.047s-0.067-0.059-0.102-0.092c-0.034-0.034-0.055-0.053-0.063-0.059zM24.308 25.197l0.411-0.504 2.069 0.698c0.078 0.025 0.154 0.053 0.227 0.082s0.153 0.064 0.239 0.103c-0.056-0.076-0.106-0.145-0.149-0.206s-0.084-0.127-0.122-0.196l-1.121-1.884 0.369-0.453 2.506 2.033-0.283 0.347-1.791-1.453c-0.041-0.034-0.080-0.068-0.116-0.103s-0.076-0.073-0.12-0.112c0.026 0.043 0.051 0.089 0.077 0.136s0.053 0.096 0.084 0.143l1.272 2.126-0.168 0.206-2.367-0.809c-0.048-0.017-0.098-0.033-0.149-0.050s-0.098-0.032-0.139-0.047c0.045 0.029 0.087 0.058 0.126 0.087s0.078 0.060 0.116 0.092l1.805 1.464-0.232 0.285-2.283-1.852-0.262-0.133zM27.102 21.599l-0.291-0.044 0.695-1.828 0.31 0.118-0.513 1.348 1.003 0.38 0.396-1.041 0.31 0.118-0.396 1.041 1.086 0.411 0.512-1.348 0.31 0.118-0.673 1.77-2.751-1.042zM0.021 16.51c0-0.681 0.553-1.233 1.236-1.233s1.236 0.552 1.236 1.233c0 0.681-0.553 1.233-1.236 1.233s-1.236-0.552-1.236-1.233zM28.771 16.51c0-0.681 0.553-1.233 1.236-1.233s1.235 0.552 1.235 1.233c0 0.681-0.553 1.233-1.235 1.233s-1.236-0.552-1.236-1.233z"></path>
    </symbol>
  </defs>
</svg>