<svg aria-hidden="true" style="position: absolute; width: 0; height: 0; overflow: hidden;" version="1.1" xmlns="http://www.w3.org/2000/svg" xmlns:xlink="http://www.w3.org/1999/xlink">
  <defs>
    <symbol id="icon-arrow" viewBox="0 0 35 32">
      <path fill="#fff" style="fill: var(--color1, #fff)" d="M17.195 19.966c-0.18 0-0.355-0.033-0.524-0.1s-0.31-0.156-0.422-0.267l-6.214-6.133c-0.248-0.244-0.371-0.556-0.371-0.933s0.124-0.689 0.371-0.933c0.248-0.244 0.563-0.367 0.946-0.367s0.698 0.122 0.946 0.367l5.269 5.2 5.268-5.2c0.248-0.244 0.563-0.367 0.946-0.367s0.698 0.122 0.946 0.367c0.248 0.244 0.372 0.556 0.372 0.933s-0.124 0.689-0.372 0.933l-6.214 6.133c-0.135 0.133-0.281 0.228-0.439 0.284s-0.326 0.084-0.507 0.083z"></path>
    </symbol>
    <symbol id="icon-logo" viewBox="0 0 45 32">
      <path fill="#fff" style="fill: var(--color1, #fff)" d="M17.195 19.966c-0.18 0-0.355-0.033-0.524-0.1s-0.31-0.156-0.422-0.267l-6.214-6.133c-0.248-0.244-0.371-0.556-0.371-0.933s0.124-0.689 0.371-0.933c0.248-0.244 0.563-0.367 0.946-0.367s0.698 0.122 0.946 0.367l5.269 5.2 5.268-5.2c0.248-0.244 0.563-0.367 0.946-0.367s0.698 0.122 0.946 0.367c0.248 0.244 0.372 0.556 0.372 0.933s-0.124 0.689-0.372 0.933l-6.214 6.133c-0.135 0.133-0.281 0.228-0.439 0.284s-0.326 0.084-0.507 0.083z"></path>
    </symbol>
  </defs>
</svg>